<?xml version="1.0" encoding="UTF-8" standalone="no"?>
<!-- Created with Inkscape (http://www.inkscape.org/) -->

<svg
   version="1.1"
   id="svg1521"
   xml:space="preserve"
   width="682.66669"
   height="682.66669"
   viewBox="0 0 682.66669 682.66669"
   xmlns="http://www.w3.org/2000/svg"
   xmlns:svg="http://www.w3.org/2000/svg"><defs
     id="defs1525"><clipPath
       clipPathUnits="userSpaceOnUse"
       id="clipPath1535"><path
         d="M 0,512 H 512 V 0 H 0 Z"
         id="path1533" /></clipPath></defs><g
     id="g1527"
     transform="matrix(1.3333333,0,0,-1.3333333,0,682.66667)"><g
       id="g1529"><g
         id="g1531"
         clip-path="url(#clipPath1535)"><g
           id="g1537"
           transform="translate(504.5,281.877)"><path
             d="M 0,0 H -120.241"
             style="fill:none;stroke:#64748b;stroke-width:15;stroke-linecap:round;stroke-linejoin:round;stroke-miterlimit:10;stroke-dasharray:none;stroke-opacity:1"
             id="path1539" /></g><g
           id="g1541"
           transform="translate(281.2432,71.9673)"><path
             d="m 0,0 v -32.443 c 0,-5.124 4.153,-9.278 9.277,-9.278 h 61.052"
             style="fill:none;stroke:#64748b;stroke-width:15;stroke-linecap:round;stroke-linejoin:round;stroke-miterlimit:10;stroke-dasharray:none;stroke-opacity:1"
             id="path1543" /></g><g
           id="g1545"
           transform="translate(388.5981,30.2466)"><path
             d="m 0,0 h 106.625 c 5.123,0 9.277,4.154 9.277,9.277 v 286.017 c 0,5.124 -4.154,9.278 -9.277,9.278 H 22.561"
             style="fill:none;stroke:#64748b;stroke-width:15;stroke-linecap:round;stroke-linejoin:round;stroke-miterlimit:10;stroke-dasharray:none;stroke-opacity:1"
             id="path1547" /></g><g
           id="g1549"
           transform="translate(122.0317,281.877)"><path
             d="M 0,0 H -114.532"
             style="fill:none;stroke:#64748b;stroke-width:15;stroke-linecap:round;stroke-linejoin:round;stroke-miterlimit:10;stroke-dasharray:none;stroke-opacity:1"
             id="path1551" /></g><g
           id="g1553"
           transform="translate(122.0317,334.8184)"><path
             d="M 0,0 H -26.99"
             style="fill:none;stroke:#64748b;stroke-width:15;stroke-linecap:round;stroke-linejoin:round;stroke-miterlimit:10;stroke-dasharray:none;stroke-opacity:1"
             id="path1555" /></g><g
           id="g1557"
           transform="translate(58.0151,334.8184)"><path
             d="m 0,0 h -41.238 c -5.123,0 -9.277,-4.154 -9.277,-9.278 v -286.016 c 0,-5.124 4.154,-9.278 9.277,-9.278 h 204.702 c 5.124,0 9.278,4.154 9.278,9.278 v 32.443"
             style="fill:none;stroke:#64748b;stroke-width:15;stroke-linecap:round;stroke-linejoin:round;stroke-miterlimit:10;stroke-dasharray:none;stroke-opacity:1"
             id="path1559" /></g><g
           id="g1561"
           transform="translate(365.5122,364.6597)"><path
             d="M 0,0 H -241.048"
             style="fill:none;stroke:#64748b;stroke-width:15;stroke-linecap:round;stroke-linejoin:round;stroke-miterlimit:10;stroke-dasharray:none;stroke-opacity:1"
             id="path1563" /></g><g
           id="g1565"
           transform="translate(291.9644,425.8896)"><path
             d="M 0,0 H -156.771 C -162.696,0 -167.5,-4.804 -167.5,-10.73 V -220.483"
             style="fill:none;stroke:#64748b;stroke-width:15;stroke-linecap:round;stroke-linejoin:round;stroke-miterlimit:10;stroke-dasharray:none;stroke-opacity:1"
             id="path1567" /></g><g
           id="g1569"
           transform="translate(382.6738,375.2686)"><path
             d="m 0,0 v 39.891 c 0,5.926 -4.804,10.73 -10.73,10.73 h -40.678"
             style="fill:none;stroke:#64748b;stroke-width:15;stroke-linecap:round;stroke-linejoin:round;stroke-miterlimit:10;stroke-dasharray:none;stroke-opacity:1"
             id="path1571" /></g><g
           id="g1573"
           transform="translate(124.4639,168.3799)"><path
             d="m 0,0 v -84.016 c 0,-5.925 4.804,-10.729 10.73,-10.729 h 236.75 c 5.926,0 10.73,4.804 10.73,10.729 v 233.885"
             style="fill:none;stroke:#64748b;stroke-width:15;stroke-linecap:round;stroke-linejoin:round;stroke-miterlimit:10;stroke-dasharray:none;stroke-opacity:1"
             id="path1575" /></g><g
           id="g1577"
           transform="translate(270.6216,203.3979)"><path
             d="M 0,0 C -4.549,3.883 -10.93,6.318 -18.019,6.34 -25.108,6.361 -31.504,3.963 -36.076,0.108"
             style="fill:none;stroke:#64748b;stroke-width:15;stroke-linecap:round;stroke-linejoin:round;stroke-miterlimit:10;stroke-dasharray:none;stroke-opacity:1"
             id="path1579" /></g><g
           id="g1581"
           transform="translate(294.334,237.4888)"><path
             d="M 0,0 H 0.089"
             style="fill:none;stroke:#64748b;stroke-width:15;stroke-linecap:round;stroke-linejoin:round;stroke-miterlimit:10;stroke-dasharray:none;stroke-opacity:1"
             id="path1583" /></g><g
           id="g1585"
           transform="translate(212.7148,237.4888)"><path
             d="M 0,0 H 0.088"
             style="fill:none;stroke:#64748b;stroke-width:15;stroke-linecap:round;stroke-linejoin:round;stroke-miterlimit:10;stroke-dasharray:none;stroke-opacity:1"
             id="path1587" /></g><g
           id="g1589"
           transform="translate(294.3247,237.4888)"><path
             d="M 0,0 H 0.088"
             style="fill:none;stroke:#64748b;stroke-width:15;stroke-linecap:round;stroke-linejoin:round;stroke-miterlimit:10;stroke-dasharray:none;stroke-opacity:1"
             id="path1591" /></g><g
           id="g1593"
           transform="translate(162.5864,395.3389)"><path
             d="M 0,0 H 0.095"
             style="fill:none;stroke:#64748b;stroke-width:15;stroke-linecap:round;stroke-linejoin:round;stroke-miterlimit:10;stroke-dasharray:none;stroke-opacity:1"
             id="path1595" /></g><g
           id="g1597"
           transform="translate(162.5771,395.3384)"><path
             d="M 0,0 H 0.093"
             style="fill:none;stroke:#64748b;stroke-width:15;stroke-linecap:round;stroke-linejoin:round;stroke-miterlimit:10;stroke-dasharray:none;stroke-opacity:1"
             id="path1599" /></g><g
           id="g1601"
           transform="translate(185.2661,395.3384)"><path
             d="M 0,0 H 0.093"
             style="fill:none;stroke:#64748b;stroke-width:15;stroke-linecap:round;stroke-linejoin:round;stroke-miterlimit:10;stroke-dasharray:none;stroke-opacity:1"
             id="path1603" /></g><g
           id="g1605"
           transform="translate(207.9556,395.3384)"><path
             d="M 0,0 H 0.093"
             style="fill:none;stroke:#64748b;stroke-width:15;stroke-linecap:round;stroke-linejoin:round;stroke-miterlimit:10;stroke-dasharray:none;stroke-opacity:1"
             id="path1607" /></g><g
           id="g1609"
           transform="translate(78.9937,395.3389)"><path
             d="M 0,0 -18.597,-18.597"
             style="fill:none;stroke:#64748b;stroke-width:15;stroke-linecap:round;stroke-linejoin:round;stroke-miterlimit:10;stroke-dasharray:none;stroke-opacity:1"
             id="path1611" /></g><g
           id="g1613"
           transform="translate(78.9937,376.7417)"><path
             d="M 0,0 -18.597,18.597"
             style="fill:none;stroke:#64748b;stroke-width:15;stroke-linecap:round;stroke-linejoin:round;stroke-miterlimit:10;stroke-dasharray:none;stroke-opacity:1"
             id="path1615" /></g><g
           id="g1617"
           transform="translate(454.4565,404.6372)"><path
             d="M 0,0 -18.597,-18.597"
             style="fill:none;stroke:#64748b;stroke-width:15;stroke-linecap:round;stroke-linejoin:round;stroke-miterlimit:10;stroke-dasharray:none;stroke-opacity:1"
             id="path1619" /></g><g
           id="g1621"
           transform="translate(454.4565,386.0405)"><path
             d="M 0,0 -18.597,18.597"
             style="fill:none;stroke:#64748b;stroke-width:15;stroke-linecap:round;stroke-linejoin:round;stroke-miterlimit:10;stroke-dasharray:none;stroke-opacity:1"
             id="path1623" /></g><g
           id="g1625"
           transform="translate(263.5317,481.7539)"><path
             d="M 0,0 -18.597,-18.597"
             style="fill:none;stroke:#64748b;stroke-width:15;stroke-linecap:round;stroke-linejoin:round;stroke-miterlimit:10;stroke-dasharray:none;stroke-opacity:1"
             id="path1627" /></g><g
           id="g1629"
           transform="translate(263.5317,463.1567)"><path
             d="M 0,0 -18.597,18.597"
             style="fill:none;stroke:#64748b;stroke-width:15;stroke-linecap:round;stroke-linejoin:round;stroke-miterlimit:10;stroke-dasharray:none;stroke-opacity:1"
             id="path1631" /></g><g
           id="g1633"
           transform="translate(359.1099,346.2109)"><path
             d="M 0,0 C 0,14.771 11.975,26.745 26.746,26.745 41.517,26.745 53.491,14.771 53.491,0 53.491,-14.771 41.517,-26.746 26.746,-26.746 11.975,-26.746 0,-14.771 0,0"
             style="fill:none;stroke:#64748b;stroke-width:15;stroke-linecap:round;stroke-linejoin:round;stroke-miterlimit:10;stroke-dasharray:none;stroke-opacity:1"
             id="path1635" /></g><g
           id="g1637"
           transform="translate(288.0498,440.8525)"><path
             d="M 0,0 C 0,13.117 10.633,23.75 23.75,23.75 36.867,23.75 47.5,13.117 47.5,0 47.5,-13.117 36.867,-23.75 23.75,-23.75 10.633,-23.75 0,-13.117 0,0"
             style="fill:none;stroke:#64748b;stroke-width:15;stroke-linecap:round;stroke-linejoin:round;stroke-miterlimit:10;stroke-dasharray:none;stroke-opacity:1"
             id="path1639" /></g></g></g></g></svg>
