<svg width="536" height="116" viewBox="0 0 536 116" fill="none"
    xmlns="http://www.w3.org/2000/svg">
    <path d="M150.624 59H140.651L155.847 14.9809H167.84L183.015 59H173.042L162.015 25.0399H161.671L150.624 59ZM150 41.6976H173.557V48.9624H150V41.6976ZM197.997 59V14.9809H207.304V51.3267H226.175V59H197.997ZM234.849 22.6541V14.9809H271.002V22.6541H257.525V59H248.326V22.6541H234.849ZM286.64 59V14.9809H316.301V22.6541H295.947V33.1431H314.775V40.8163H295.947V51.3267H316.387V59H286.64ZM333.385 59V14.9809H350.752C354.076 14.9809 356.913 15.5755 359.263 16.7648C361.627 17.9398 363.426 19.6092 364.658 21.7729C365.905 23.9222 366.528 26.4513 366.528 29.3602C366.528 32.2833 365.897 34.7981 364.636 36.9045C363.375 38.9965 361.549 40.6014 359.156 41.719C356.777 42.8367 353.897 43.3956 350.515 43.3956H338.887V35.9157H349.011C350.787 35.9157 352.263 35.6721 353.438 35.185C354.613 34.6978 355.487 33.967 356.06 32.9926C356.648 32.0182 356.942 30.8074 356.942 29.3602C356.942 27.8986 356.648 26.6663 356.06 25.6632C355.487 24.6602 354.606 23.9008 353.417 23.3849C352.242 22.8547 350.759 22.5896 348.968 22.5896H342.691V59H333.385ZM357.157 38.9679L368.097 59H357.823L347.119 38.9679H357.157ZM398.394 59H382.789V14.9809H398.523C402.95 14.9809 406.762 15.8621 409.957 17.6246C413.153 19.3727 415.61 21.8875 417.33 25.1689C419.063 28.4503 419.93 32.3764 419.93 36.9474C419.93 41.5328 419.063 45.4733 417.33 48.769C415.61 52.0647 413.138 54.5938 409.914 56.3563C406.705 58.1188 402.864 59 398.394 59ZM392.096 51.0258H398.007C400.758 51.0258 403.072 50.5386 404.949 49.5643C406.841 48.5755 408.259 47.0495 409.205 44.9861C410.165 42.9084 410.645 40.2288 410.645 36.9474C410.645 33.6947 410.165 31.0367 409.205 28.9733C408.259 26.9099 406.848 25.391 404.971 24.4166C403.094 23.4422 400.779 22.955 398.028 22.955H392.096V51.0258ZM476.96 36.9904C476.96 41.7907 476.05 45.8745 474.23 49.2419C472.425 52.6092 469.96 55.1813 466.836 56.9581C463.727 58.7206 460.231 59.6018 456.347 59.6018C452.436 59.6018 448.925 58.7134 445.815 56.9366C442.706 55.1598 440.249 52.5877 438.443 49.2204C436.638 45.853 435.735 41.7764 435.735 36.9904C435.735 32.1902 436.638 28.1064 438.443 24.739C440.249 21.3717 442.706 18.8067 445.815 17.0443C448.925 15.2674 452.436 14.379 456.347 14.379C460.231 14.379 463.727 15.2674 466.836 17.0443C469.96 18.8067 472.425 21.3717 474.23 24.739C476.05 28.1064 476.96 32.1902 476.96 36.9904ZM467.524 36.9904C467.524 33.881 467.058 31.2588 466.127 29.1237C465.21 26.9887 463.913 25.3695 462.237 24.2661C460.56 23.1628 458.597 22.6111 456.347 22.6111C454.098 22.6111 452.135 23.1628 450.458 24.2661C448.782 25.3695 447.478 26.9887 446.546 29.1237C445.629 31.2588 445.171 33.881 445.171 36.9904C445.171 40.0999 445.629 42.7221 446.546 44.8571C447.478 46.9922 448.782 48.6114 450.458 49.7147C452.135 50.8181 454.098 51.3697 456.347 51.3697C458.597 51.3697 460.56 50.8181 462.237 49.7147C463.913 48.6114 465.21 46.9922 466.127 44.8571C467.058 42.7221 467.524 40.0999 467.524 36.9904ZM532.377 30.3919H522.963C522.791 29.1739 522.44 28.092 521.91 27.1463C521.38 26.1863 520.699 25.3695 519.868 24.696C519.037 24.0225 518.077 23.5067 516.988 23.1485C515.913 22.7902 514.745 22.6111 513.484 22.6111C511.206 22.6111 509.221 23.1771 507.531 24.3091C505.84 25.4268 504.529 27.0603 503.597 29.2097C502.666 31.3447 502.2 33.9383 502.2 36.9904C502.2 40.1285 502.666 42.7651 503.597 44.9001C504.543 47.0352 505.861 48.6472 507.552 49.7362C509.243 50.8252 511.199 51.3697 513.42 51.3697C514.667 51.3697 515.82 51.2049 516.88 50.8754C517.955 50.5458 518.908 50.0658 519.739 49.4353C520.57 48.7905 521.258 48.0095 521.802 47.0925C522.361 46.1754 522.748 45.1294 522.963 43.9544L532.377 43.9974C532.134 46.0178 531.525 47.9666 530.55 49.8437C529.59 51.7065 528.294 53.3758 526.66 54.8517C525.041 56.3133 523.106 57.4739 520.857 58.3337C518.621 59.1791 516.092 59.6018 513.269 59.6018C509.343 59.6018 505.833 58.7134 502.737 56.9366C499.657 55.1598 497.221 52.5877 495.43 49.2204C493.653 45.853 492.764 41.7764 492.764 36.9904C492.764 32.1902 493.667 28.1064 495.473 24.739C497.278 21.3717 499.728 18.8067 502.823 17.0443C505.919 15.2674 509.401 14.379 513.269 14.379C515.82 14.379 518.184 14.7373 520.362 15.4537C522.555 16.1702 524.496 17.2162 526.187 18.5918C527.878 19.9531 529.254 21.6224 530.314 23.5998C531.389 25.5773 532.076 27.8413 532.377 30.3919Z" fill="#0047B1"/>
    <path d="M142.846 104.526V71.4339H154.965C157.313 71.4339 159.258 71.8217 160.798 72.5973C162.339 73.3622 163.491 74.4017 164.256 75.7159C165.021 77.0193 165.403 78.4898 165.403 80.1271C165.403 81.506 165.15 82.6694 164.644 83.6174C164.138 84.5545 163.459 85.3086 162.608 85.8795C161.768 86.4397 160.841 86.849 159.829 87.1076V87.4307C160.927 87.4846 161.999 87.8401 163.044 88.4972C164.1 89.1435 164.972 90.0646 165.662 91.2603C166.351 92.456 166.696 93.9103 166.696 95.623C166.696 97.3143 166.297 98.8332 165.5 100.18C164.714 101.515 163.497 102.577 161.848 103.363C160.2 104.139 158.094 104.526 155.531 104.526H142.846ZM147.839 100.244H155.046C157.437 100.244 159.15 99.7811 160.184 98.8547C161.218 97.9283 161.735 96.7703 161.735 95.3807C161.735 94.3358 161.471 93.377 160.944 92.5045C160.416 91.6319 159.662 90.9371 158.681 90.42C157.712 89.903 156.559 89.6444 155.224 89.6444H147.839V100.244ZM147.839 85.7503H154.529C155.649 85.7503 156.656 85.5348 157.55 85.1039C158.455 84.673 159.172 84.0698 159.699 83.2942C160.238 82.5078 160.507 81.5814 160.507 80.5149C160.507 79.1469 160.028 77.9996 159.069 77.0732C158.11 76.1468 156.64 75.6836 154.658 75.6836H147.839V85.7503ZM173.876 71.4339V104.526H169.045V71.4339H173.876ZM192.913 94.2334V79.707H197.761V104.526H193.01V100.228H192.752C192.181 101.553 191.265 102.657 190.005 103.541C188.755 104.413 187.198 104.849 185.335 104.849C183.741 104.849 182.329 104.499 181.101 103.799C179.884 103.088 178.925 102.038 178.225 100.648C177.536 99.2587 177.191 97.5405 177.191 95.4938V79.707H182.022V94.9121C182.022 96.6033 182.491 97.9499 183.428 98.9517C184.365 99.9535 185.583 100.454 187.08 100.454C187.985 100.454 188.884 100.228 189.778 99.7758C190.683 99.3233 191.432 98.6393 192.024 97.7236C192.628 96.808 192.924 95.6446 192.913 94.2334ZM211.764 105.027C209.319 105.027 207.213 104.505 205.446 103.46C203.69 102.404 202.333 100.923 201.374 99.0163C200.426 97.0988 199.952 94.8528 199.952 92.2783C199.952 89.736 200.426 87.4954 201.374 85.5564C202.333 83.6174 203.669 82.1038 205.381 81.0158C207.105 79.9278 209.119 79.3839 211.425 79.3839C212.825 79.3839 214.182 79.6155 215.497 80.0787C216.811 80.5419 217.99 81.269 219.035 82.26C220.08 83.2511 220.904 84.5384 221.508 86.1219C222.111 87.6947 222.412 89.6067 222.412 91.8581V93.5709H202.683V89.9514H217.678C217.678 88.6803 217.419 87.5546 216.902 86.5743C216.385 85.5833 215.658 84.8023 214.721 84.2314C213.795 83.6604 212.707 83.375 211.457 83.375C210.1 83.375 208.915 83.7089 207.902 84.3768C206.9 85.0339 206.125 85.8957 205.575 86.9621C205.037 88.0178 204.767 89.1651 204.767 90.4039V93.2316C204.767 94.8905 205.058 96.3017 205.64 97.4651C206.232 98.6285 207.057 99.5172 208.112 100.131C209.168 100.734 210.401 101.036 211.812 101.036C212.728 101.036 213.563 100.907 214.317 100.648C215.071 100.379 215.723 99.9804 216.272 99.4526C216.822 98.9247 217.242 98.273 217.533 97.4974L222.105 98.3215C221.739 99.668 221.082 100.848 220.134 101.86C219.197 102.862 218.017 103.643 216.595 104.203C215.184 104.753 213.574 105.027 211.764 105.027ZM224.588 113.834V79.707H229.306V83.7305H229.71C229.99 83.2134 230.394 82.6155 230.922 81.9369C231.45 81.2582 232.182 80.6657 233.119 80.1595C234.057 79.6424 235.295 79.3839 236.836 79.3839C238.84 79.3839 240.628 79.8901 242.2 80.9027C243.773 81.9153 245.007 83.375 245.901 85.2817C246.806 87.1884 247.258 89.4828 247.258 92.1651C247.258 94.8474 246.811 97.1473 245.917 99.0648C245.023 100.971 243.795 102.442 242.233 103.476C240.671 104.499 238.888 105.011 236.884 105.011C235.376 105.011 234.143 104.758 233.184 104.252C232.236 103.745 231.493 103.153 230.954 102.474C230.416 101.796 230.001 101.192 229.71 100.664H229.419V113.834H224.588ZM229.322 92.1167C229.322 93.8618 229.575 95.3914 230.082 96.7057C230.588 98.0199 231.32 99.0486 232.279 99.7919C233.238 100.524 234.412 100.891 235.802 100.891C237.245 100.891 238.452 100.508 239.421 99.7434C240.391 98.9678 241.123 97.9175 241.619 96.5925C242.125 95.2676 242.378 93.7756 242.378 92.1167C242.378 90.4793 242.13 89.0089 241.635 87.7054C241.15 86.402 240.418 85.3732 239.437 84.6192C238.468 83.8651 237.256 83.4881 235.802 83.4881C234.401 83.4881 233.216 83.849 232.247 84.5707C231.288 85.2924 230.561 86.2996 230.065 87.5923C229.57 88.885 229.322 90.3931 229.322 92.1167ZM249.486 104.526V79.707H254.156V83.6497H254.414C254.867 82.3139 255.664 81.2636 256.806 80.4988C257.958 79.7232 259.262 79.3354 260.716 79.3354C261.018 79.3354 261.373 79.3461 261.782 79.3677C262.203 79.3892 262.531 79.4162 262.768 79.4485V84.0698C262.574 84.0159 262.23 83.9567 261.734 83.892C261.238 83.8166 260.743 83.7789 260.247 83.7789C259.106 83.7789 258.088 84.0213 257.194 84.5061C256.31 84.98 255.61 85.6425 255.093 86.4935C254.576 87.3338 254.317 88.2925 254.317 89.3697V104.526H249.486ZM263.764 104.526V79.707H268.595V104.526H263.764ZM266.204 75.8775C265.364 75.8775 264.642 75.5974 264.039 75.0372C263.446 74.4663 263.15 73.7877 263.15 73.0013C263.15 72.2041 263.446 71.5255 264.039 70.9653C264.642 70.3944 265.364 70.1089 266.204 70.1089C267.044 70.1089 267.761 70.3944 268.353 70.9653C268.956 71.5255 269.258 72.2041 269.258 73.0013C269.258 73.7877 268.956 74.4663 268.353 75.0372C267.761 75.5974 267.044 75.8775 266.204 75.8775ZM276.741 89.7899V104.526H271.91V79.707H276.547V83.7466H276.854C277.425 82.4324 278.319 81.3767 279.537 80.5796C280.765 79.7824 282.311 79.3839 284.174 79.3839C285.865 79.3839 287.347 79.7393 288.618 80.4503C289.889 81.1505 290.875 82.1954 291.575 83.585C292.275 84.9747 292.625 86.6928 292.625 88.7396V104.526H287.794V89.3213C287.794 87.5223 287.325 86.1165 286.388 85.1039C285.451 84.0806 284.163 83.5689 282.526 83.5689C281.406 83.5689 280.409 83.8113 279.537 84.296C278.675 84.7808 277.991 85.4917 277.485 86.4289C276.989 87.3553 276.741 88.4756 276.741 89.7899ZM307.505 79.707V83.585H293.948V79.707H307.505ZM297.584 73.7607H302.415V97.2389C302.415 98.1761 302.555 98.8817 302.835 99.3556C303.115 99.8188 303.476 100.137 303.918 100.309C304.37 100.471 304.86 100.551 305.388 100.551C305.776 100.551 306.115 100.524 306.406 100.471C306.697 100.417 306.923 100.374 307.085 100.341L307.957 104.332C307.677 104.44 307.279 104.548 306.762 104.656C306.245 104.774 305.598 104.839 304.823 104.849C303.552 104.871 302.367 104.645 301.268 104.171C300.169 103.697 299.28 102.964 298.602 101.973C297.923 100.982 297.584 99.738 297.584 98.2407V73.7607ZM323.443 88.4487V92.6337H308.771V88.4487H323.443ZM333.92 105.076C332.347 105.076 330.925 104.785 329.654 104.203C328.383 103.611 327.376 102.754 326.633 101.634C325.9 100.514 325.534 99.1402 325.534 97.5136C325.534 96.1132 325.803 94.9605 326.342 94.0557C326.88 93.1508 327.608 92.4345 328.523 91.9066C329.439 91.3788 330.462 90.9802 331.593 90.7109C332.724 90.4416 333.877 90.2369 335.051 90.0969C336.538 89.9245 337.744 89.7845 338.671 89.6768C339.597 89.5583 340.27 89.3697 340.69 89.1112C341.111 88.8527 341.321 88.4326 341.321 87.8509V87.7377C341.321 86.3266 340.922 85.2332 340.125 84.4576C339.339 83.682 338.164 83.2942 336.602 83.2942C334.976 83.2942 333.694 83.6551 332.757 84.3768C331.83 85.0878 331.189 85.8795 330.834 86.7521L326.293 85.7179C326.832 84.2098 327.618 82.9926 328.652 82.0661C329.697 81.129 330.898 80.4503 332.256 80.0302C333.613 79.5993 335.04 79.3839 336.538 79.3839C337.529 79.3839 338.579 79.5023 339.689 79.7393C340.809 79.9656 341.854 80.3857 342.823 80.9997C343.804 81.6137 344.606 82.4916 345.231 83.6335C345.856 84.7646 346.168 86.235 346.168 88.0448V104.526H341.45V101.133H341.256C340.944 101.758 340.475 102.372 339.85 102.975C339.225 103.578 338.423 104.079 337.443 104.478C336.462 104.876 335.288 105.076 333.92 105.076ZM334.97 101.198C336.306 101.198 337.448 100.934 338.396 100.406C339.355 99.8781 340.082 99.1887 340.577 98.3377C341.084 97.4759 341.337 96.5548 341.337 95.5746V92.3752C341.164 92.5476 340.83 92.7091 340.335 92.86C339.85 93 339.295 93.1239 338.671 93.2316C338.046 93.3285 337.437 93.4201 336.845 93.5063C336.252 93.5817 335.757 93.6463 335.358 93.7002C334.421 93.8187 333.565 94.018 332.789 94.2981C332.024 94.5781 331.41 94.9821 330.947 95.5099C330.494 96.027 330.268 96.7164 330.268 97.5782C330.268 98.7739 330.71 99.6788 331.593 100.293C332.477 100.896 333.602 101.198 334.97 101.198ZM359.824 114.351C357.853 114.351 356.156 114.092 354.734 113.575C353.323 113.058 352.17 112.374 351.276 111.523C350.382 110.672 349.714 109.74 349.273 108.728L353.425 107.015C353.716 107.489 354.104 107.99 354.589 108.517C355.084 109.056 355.752 109.514 356.592 109.891C357.443 110.268 358.537 110.456 359.873 110.456C361.704 110.456 363.217 110.009 364.413 109.115C365.609 108.232 366.207 106.821 366.207 104.882V100.002H365.9C365.609 100.53 365.189 101.117 364.639 101.763C364.101 102.41 363.357 102.97 362.409 103.444C361.461 103.918 360.228 104.155 358.709 104.155C356.749 104.155 354.982 103.697 353.409 102.781C351.847 101.855 350.608 100.492 349.693 98.6931C348.788 96.8834 348.335 94.6589 348.335 92.0197C348.335 89.3805 348.783 87.1183 349.677 85.2332C350.581 83.348 351.82 81.9046 353.393 80.9027C354.966 79.8901 356.749 79.3839 358.741 79.3839C360.282 79.3839 361.526 79.6424 362.474 80.1595C363.422 80.6657 364.16 81.2582 364.688 81.9369C365.226 82.6155 365.641 83.2134 365.932 83.7305H366.287V79.707H371.022V105.076C371.022 107.209 370.526 108.959 369.535 110.327C368.544 111.695 367.203 112.708 365.512 113.365C363.831 114.022 361.935 114.351 359.824 114.351ZM359.776 100.147C361.165 100.147 362.339 99.8242 363.298 99.1779C364.268 98.5208 365 97.5836 365.496 96.3663C366.002 95.1383 366.255 93.6679 366.255 91.9551C366.255 90.2854 366.007 88.815 365.512 87.5438C365.016 86.2727 364.289 85.2817 363.33 84.5707C362.372 83.849 361.187 83.4881 359.776 83.4881C358.321 83.4881 357.109 83.8651 356.14 84.6192C355.17 85.3625 354.438 86.3751 353.942 87.657C353.458 88.9389 353.215 90.3716 353.215 91.9551C353.215 93.5817 353.463 95.009 353.959 96.2371C354.454 97.4651 355.187 98.4238 356.156 99.1133C357.136 99.8027 358.343 100.147 359.776 100.147ZM379.148 71.4339V104.526H374.316V71.4339H379.148ZM382.462 104.526V79.707H387.294V104.526H382.462ZM384.902 75.8775C384.062 75.8775 383.34 75.5974 382.737 75.0372C382.144 74.4663 381.848 73.7877 381.848 73.0013C381.848 72.2041 382.144 71.5255 382.737 70.9653C383.34 70.3944 384.062 70.1089 384.902 70.1089C385.742 70.1089 386.459 70.3944 387.051 70.9653C387.654 71.5255 387.956 72.2041 387.956 73.0013C387.956 73.7877 387.654 74.4663 387.051 75.0372C386.459 75.5974 385.742 75.8775 384.902 75.8775ZM401.063 105.027C398.736 105.027 396.705 104.494 394.971 103.428C393.237 102.361 391.89 100.869 390.931 98.9517C389.973 97.0342 389.493 94.7936 389.493 92.2298C389.493 89.6552 389.973 87.4038 390.931 85.4756C391.89 83.5473 393.237 82.05 394.971 80.9835C396.705 79.9171 398.736 79.3839 401.063 79.3839C403.389 79.3839 405.42 79.9171 407.154 80.9835C408.889 82.05 410.235 83.5473 411.194 85.4756C412.153 87.4038 412.632 89.6552 412.632 92.2298C412.632 94.7936 412.153 97.0342 411.194 98.9517C410.235 100.869 408.889 102.361 407.154 103.428C405.42 104.494 403.389 105.027 401.063 105.027ZM401.079 100.971C402.587 100.971 403.836 100.573 404.827 99.7758C405.819 98.9786 406.551 97.9175 407.025 96.5925C407.51 95.2676 407.752 93.8079 407.752 92.2136C407.752 90.6301 407.51 89.1758 407.025 87.8509C406.551 86.5151 405.819 85.4432 404.827 84.6353C403.836 83.8274 402.587 83.4234 401.079 83.4234C399.56 83.4234 398.299 83.8274 397.298 84.6353C396.307 85.4432 395.569 86.5151 395.084 87.8509C394.61 89.1758 394.373 90.6301 394.373 92.2136C394.373 93.8079 394.61 95.2676 395.084 96.5925C395.569 97.9175 396.307 98.9786 397.298 99.7758C398.299 100.573 399.56 100.971 401.079 100.971Z" fill="#939393"/>
    <line x1="119.539" y1="6.05264" x2="119.539" y2="108.947" stroke="#939393" stroke-width="3.02632"/>
    <path d="M59.6842 49L77.8421 67.1579L62.1053 82.8947" stroke="#535353" stroke-width="9.68421" stroke-linecap="round" stroke-linejoin="round"/>
    <path d="M45.1579 82.8947L27 64.7369L42.7368 49" stroke="#0047B1" stroke-width="9.68421" stroke-linecap="round" stroke-linejoin="round"/>
    <rect x="3.82271" y="20.8227" width="94.3546" height="91.3546" rx="6.37119" stroke="#535353" stroke-width="7.64543"/>
    <rect x="36.953" y="5.25623" width="30.5817" height="15.2909" rx="7.64543" stroke="#535353" stroke-width="7.64543"/>
</svg>
